<svg width="25" height="24" viewBox="0 0 25 24" fill="none" xmlns="http://www.w3.org/2000/svg">
<path d="M19.7944 16.946C18.0755 16.946 16.6772 18.3444 16.6772 20.0632C16.6772 21.782 18.0756 23.1804 19.7944 23.1804C21.5132 23.1804 22.9116 21.782 22.9116 20.0632C22.9116 18.3444 21.5132 16.946 19.7944 16.946ZM19.7944 21.3101C19.1067 21.3101 18.5475 20.7508 18.5475 20.0632C18.5475 19.3755 19.1067 18.8163 19.7944 18.8163C20.482 18.8163 21.0413 19.3755 21.0413 20.0632C21.0413 20.7508 20.482 21.3101 19.7944 21.3101Z" fill="#313131"/>
<path d="M24.8013 4.89822C24.6242 4.67161 24.3527 4.53943 24.065 4.53943H5.77249L4.93084 1.01792C4.83015 0.597121 4.45388 0.300049 4.02121 0.300049H0.935162C0.418655 0.3 0 0.718655 0 1.23516C0 1.75167 0.418655 2.17032 0.935162 2.17032H3.28308L6.32235 14.8873C6.42304 15.3085 6.79931 15.6052 7.23198 15.6052H21.7894C22.2193 15.6052 22.594 15.3122 22.6972 14.8951L24.9728 5.6993C25.0416 5.42005 24.9783 5.12483 24.8013 4.89822ZM21.0578 13.7349H7.97011L6.21947 6.40975H22.8701L21.0578 13.7349Z" fill="#313131"/>
<path d="M8.47884 16.946C6.75999 16.946 5.36164 18.3444 5.36164 20.0632C5.36164 21.782 6.76004 23.1804 8.47884 23.1804C10.1977 23.1804 11.5961 21.782 11.5961 20.0632C11.5961 18.3444 10.1977 16.946 8.47884 16.946ZM8.47884 21.3101C7.79119 21.3101 7.23196 20.7508 7.23196 20.0632C7.23196 19.3755 7.79119 18.8163 8.47884 18.8163C9.1665 18.8163 9.72573 19.3755 9.72573 20.0632C9.72573 20.7508 9.1665 21.3101 8.47884 21.3101Z" fill="#313131"/>
</svg>
