<svg width="137" height="39" viewBox="0 0 137 39" fill="none" xmlns="http://www.w3.org/2000/svg">
<path d="M42.4612 9.58182H45.5211V22.6305H49.9798V25.5242H42.4612V9.58182Z" fill="#313131"/>
<path d="M51.9797 13.7327H54.9959V19.4117C54.9959 20.5172 55.0724 21.2866 55.2254 21.7201C55.3784 22.1464 55.6225 22.4788 55.9576 22.7172C56.3 22.9557 56.7189 23.0749 57.2144 23.0749C57.7098 23.0749 58.1287 22.9593 58.4711 22.7281C58.8208 22.4896 59.0794 22.1428 59.247 21.6876C59.3709 21.3481 59.4328 20.6219 59.4328 19.5092V13.7327H62.4271V18.7289C62.4271 20.7881 62.2632 22.197 61.9354 22.9557C61.5347 23.8805 60.9445 24.5922 60.165 25.0907C59.3854 25.582 58.3946 25.8277 57.1925 25.8277C55.8884 25.8277 54.832 25.5387 54.0233 24.9606C53.2219 24.3826 52.6573 23.577 52.3294 22.5438C52.0963 21.8285 51.9797 20.528 51.9797 18.6422V13.7327Z" fill="#313131"/>
<path d="M64.733 13.7327H67.2902V15.2175C67.5671 14.6322 67.935 14.1879 68.394 13.8844C68.853 13.581 69.3557 13.4292 69.9021 13.4292C70.2882 13.4292 70.6926 13.5304 71.1151 13.7327L70.1862 16.2796C69.8365 16.1062 69.5487 16.0195 69.3229 16.0195C68.8639 16.0195 68.4741 16.3012 68.1536 16.8648C67.8403 17.4284 67.6836 18.5338 67.6836 20.1812L67.6946 20.7556V25.5242H64.733V13.7327Z" fill="#313131"/>
<path d="M84.5132 20.4846H74.9291C75.0675 21.3228 75.4354 21.9911 76.0328 22.4896C76.6375 22.9809 77.4062 23.2266 78.3387 23.2266C79.4534 23.2266 80.4114 22.8401 81.2128 22.067L83.7263 23.2374C83.0998 24.1189 82.3494 24.7728 81.4751 25.1991C80.6009 25.6181 79.5627 25.8277 78.3606 25.8277C76.4955 25.8277 74.9764 25.246 73.8035 24.0828C72.6305 22.9123 72.044 21.4492 72.044 19.6935C72.044 17.8944 72.6269 16.4024 73.7925 15.2175C74.9655 14.0253 76.4335 13.4292 78.1966 13.4292C80.069 13.4292 81.5917 14.0253 82.7647 15.2175C83.9376 16.4024 84.5241 17.9703 84.5241 19.9211L84.5132 20.4846ZM81.5188 18.1545C81.3221 17.497 80.9324 16.9624 80.3495 16.5505C79.774 16.1387 79.1037 15.9328 78.3387 15.9328C77.5082 15.9328 76.7796 16.164 76.1531 16.6264C75.7596 16.9154 75.3954 17.4248 75.0602 18.1545H81.5188Z" fill="#313131"/>
<path d="M93.1137 15.0224L92.1302 16.0303C91.3142 15.2428 90.5164 14.849 89.7369 14.849C89.2415 14.849 88.8153 15.0116 88.4583 15.3367C88.1086 15.6618 87.9337 16.0411 87.9337 16.4747C87.9337 16.8576 88.0794 17.2225 88.3709 17.5693C88.6623 17.9233 89.2743 18.3388 90.2068 18.8156C91.3434 19.4009 92.1156 19.9644 92.5236 20.5063C92.9243 21.0554 93.1247 21.6732 93.1247 22.3596C93.1247 23.3278 92.7822 24.1478 92.0974 24.8198C91.4126 25.4917 90.5565 25.8277 89.5293 25.8277C88.8444 25.8277 88.1887 25.6796 87.5622 25.3833C86.9429 25.0871 86.4293 24.6789 86.0213 24.1587L86.983 23.0749C87.7625 23.9491 88.5894 24.3862 89.4637 24.3862C90.0757 24.3862 90.5966 24.1912 91.0264 23.801C91.4563 23.4108 91.6712 22.952 91.6712 22.4246C91.6712 21.9911 91.5291 21.6045 91.245 21.265C90.9609 20.9326 90.3197 20.5135 89.3216 20.0078C88.2507 19.4587 87.5221 18.9168 87.136 18.3821C86.7498 17.8474 86.5568 17.2369 86.5568 16.5505C86.5568 15.6546 86.8628 14.9104 87.4747 14.3179C88.094 13.7255 88.8736 13.4292 89.8134 13.4292C90.9062 13.4292 92.0063 13.9603 93.1137 15.0224Z" fill="#313131"/>
<path d="M95.8349 9.18082H97.3648V15.8461C97.9841 15.0368 98.6653 14.4335 99.4084 14.0361C100.152 13.6315 100.957 13.4292 101.824 13.4292C102.712 13.4292 103.499 13.6532 104.184 14.1012C104.876 14.5491 105.386 15.1524 105.714 15.9111C106.042 16.6625 106.206 17.8438 106.206 19.455V25.5242H104.676V19.8994C104.676 18.5411 104.621 17.6343 104.512 17.1791C104.323 16.3988 103.976 15.8135 103.474 15.4234C102.978 15.026 102.326 14.8273 101.518 14.8273C100.592 14.8273 99.7618 15.1308 99.0259 15.7377C98.2974 16.3446 97.8165 17.096 97.5834 17.9919C97.4377 18.57 97.3648 19.6393 97.3648 21.1999V25.5242H95.8349V9.18082Z" fill="#313131"/>
<path d="M115.123 13.4292C116.952 13.4292 118.467 14.0867 119.669 15.4017C120.762 16.6011 121.309 18.0208 121.309 19.661C121.309 21.3083 120.729 22.7497 119.571 23.9852C118.42 25.2135 116.937 25.8277 115.123 25.8277C113.302 25.8277 111.812 25.2135 110.654 23.9852C109.503 22.7497 108.927 21.3083 108.927 19.661C108.927 18.0281 109.473 16.6119 110.566 15.4125C111.768 14.0903 113.287 13.4292 115.123 13.4292ZM115.123 14.914C113.856 14.914 112.766 15.38 111.856 16.3121C110.945 17.2441 110.49 18.3713 110.49 19.6935C110.49 20.5461 110.697 21.3408 111.113 22.0778C111.528 22.8148 112.089 23.3856 112.796 23.7902C113.502 24.1876 114.278 24.3862 115.123 24.3862C115.968 24.3862 116.744 24.1876 117.451 23.7902C118.158 23.3856 118.719 22.8148 119.134 22.0778C119.549 21.3408 119.757 20.5461 119.757 19.6935C119.757 18.3713 119.298 17.2441 118.38 16.3121C117.469 15.38 116.384 14.914 115.123 14.914Z" fill="#313131"/>
<path d="M124.183 13.7327H125.702V15.9003C126.307 15.0766 127.002 14.4588 127.789 14.047C128.576 13.6352 129.454 13.4292 130.423 13.4292C132.113 13.4292 133.559 14.0325 134.761 15.2391C135.964 16.4458 136.565 17.898 136.565 19.5959C136.565 21.33 135.967 22.8039 134.772 24.0178C133.585 25.2244 132.15 25.8277 130.467 25.8277C129.519 25.8277 128.649 25.6326 127.855 25.2424C127.061 24.8523 126.343 24.2706 125.702 23.4975V29.8377H124.183V13.7327ZM130.303 14.8923C128.977 14.8923 127.858 15.3511 126.948 16.2687C126.044 17.1863 125.593 18.3279 125.593 19.6935C125.593 20.5894 125.793 21.395 126.194 22.1103C126.602 22.8256 127.181 23.3928 127.931 23.8118C128.689 24.2309 129.487 24.4404 130.325 24.4404C131.148 24.4404 131.92 24.2309 132.641 23.8118C133.37 23.3856 133.949 22.7931 134.379 22.0344C134.809 21.2758 135.024 20.481 135.024 19.6501C135.024 18.812 134.809 18.0172 134.379 17.2658C133.956 16.5144 133.384 15.9328 132.663 15.5209C131.942 15.1019 131.155 14.8923 130.303 14.8923Z" fill="#313131"/>
<path d="M11.8412 25.1529C8.63638 21.1164 10.9511 15.1092 14.9875 11.9044C19.024 8.69965 25.3992 7.80744 28.604 11.8439C31.8091 15.8807 33.4684 26.8924 29.4319 30.0972C25.3954 33.302 15.0463 29.1897 11.8412 25.1529Z" fill="#E56A77"/>
<path d="M15.9516 8.85224C15.5998 8.32445 15.7404 4.52088 15.7404 4.52088C13.9437 5.13968 13.2373 9.56061 13.2373 9.56061L13.281 9.61881L13.209 9.53044C13.209 9.53044 8.70495 9.16822 7.69492 10.7779C7.69492 10.7779 11.4322 11.5043 11.8661 11.9669C11.8661 11.9669 8.81955 14.1797 9.49065 17.1443L12.3107 14.8063L14.7018 11.8843C15.0581 11.5983 15.123 11.6801 15.1245 11.6819L18.7928 10.0242L21.5992 7.79603C18.4831 5.98994 15.9516 8.85224 15.9516 8.85224Z" fill="#81BDA4"/>
<path d="M27.7058 31.7735C23.27 35.2955 12.5671 31.0727 9.10593 26.7133C5.59653 22.2932 8.06659 15.871 12.3682 12.4557C16.6694 9.04065 23.4844 8.09091 26.9938 12.511C30.455 16.8704 32.1417 28.2516 27.7058 31.7735ZM13.2615 13.5808C9.50104 16.5664 7.27338 22.0948 10.231 25.82C13.2774 29.657 23.1357 33.5677 26.8126 30.6485C30.489 27.7295 28.9151 17.2413 25.8687 13.4043C22.9111 9.67912 17.0216 10.5954 13.2615 13.5808Z" fill="#012D3D"/>
<path d="M7.74489 18.7958C7.55363 18.9477 7.30752 19.0043 7.07597 18.9252C6.83979 18.8449 6.66685 18.6532 6.61166 18.4097C6.0987 16.1425 7.42522 14.2908 8.37598 13.298C7.59225 13.0679 6.4162 12.7935 5.38137 12.5921C5.14903 12.5467 4.95426 12.3907 4.85994 12.1734C4.76629 11.9561 4.78501 11.707 4.91101 11.5061C5.04492 11.2928 5.22311 11.0975 5.43951 10.9257C6.71761 9.9109 9.2495 9.85302 10.456 9.88934C10.7031 8.70197 11.3404 6.29867 12.6065 5.29343C12.8244 5.12043 13.0567 4.99101 13.2963 4.90843C13.5216 4.83104 13.7703 4.87017 13.9612 5.01275C14.1517 5.15562 14.2591 5.38337 14.2478 5.62167C14.2026 6.57593 14.1908 7.66081 14.2189 8.45477C15.3366 7.6554 17.3275 6.76135 19.638 8.10034C19.843 8.22 19.9767 8.43304 19.9938 8.67018C20.0112 8.90701 19.9102 9.13706 19.7242 9.28475L16.9178 11.5129C16.8765 11.5456 16.8325 11.5733 16.7859 11.5962L13.2903 13.2991C13.2346 13.3482 13.1557 13.4152 13.0378 13.51L10.6938 16.3744C10.6644 16.4106 10.6221 16.4313 10.5863 16.4609L7.75652 18.7866C7.75239 18.7898 7.74902 18.7925 7.74489 18.7958ZM16.086 10.339L17.864 8.92728C16.6307 8.66224 15.5745 9.20181 14.8454 9.78066C14.4734 10.076 14.2574 10.3307 14.2553 10.3335C14.1083 10.5065 13.8902 10.6014 13.6647 10.5885C13.4391 10.5762 13.2321 10.4587 13.1065 10.2704C12.8716 9.91763 12.7557 8.96839 12.7604 7.44029C12.2959 8.36855 12.0072 9.69838 11.8455 10.6021C11.917 10.87 11.8808 11.2319 11.6502 11.4151C11.6498 11.4154 11.6498 11.4153 11.6495 11.4156C11.4102 11.6056 11.0332 11.5521 10.7844 11.4042C9.85668 11.3532 8.5087 11.362 7.49789 11.6045C9.02966 11.9689 9.93689 12.2929 10.2294 12.6043C10.3702 12.7548 10.4337 12.9502 10.4142 13.1552C10.3944 13.3605 10.2853 13.5449 10.1178 13.6644L10.0476 13.7153C9.71003 13.9833 8.32293 15.1665 8.00543 16.7558L9.62608 15.4116L11.9737 12.5425C12.0054 12.5039 12.0408 12.4684 12.0798 12.4375C12.2462 12.3035 12.3195 12.2411 12.3515 12.2114C12.4113 12.148 12.4833 12.0939 12.5623 12.0556L16.086 10.339Z" fill="#012D3D"/>
<path d="M12.7558 22.977C13.0292 23.3213 12.9717 23.8219 12.6278 24.0949C12.2835 24.3683 11.7833 24.3105 11.51 23.9662C11.2369 23.6223 11.294 23.122 11.6383 22.8487C11.9822 22.5756 12.4828 22.6331 12.7558 22.977Z" fill="#012D3D"/>
<path d="M16.4941 20.009C16.7674 20.3532 16.7103 20.8535 16.366 21.1268C16.0221 21.3999 15.5216 21.3424 15.2482 20.9981C14.9752 20.6542 15.0327 20.1536 15.3766 19.8806C15.7209 19.6073 16.221 19.665 16.4941 20.009Z" fill="#012D3D"/>
<path d="M20.2328 17.0406C20.5061 17.3849 20.4486 17.8855 20.1043 18.1588C19.7604 18.4319 19.2599 18.3744 18.9865 18.0301C18.7135 17.6862 18.771 17.1856 19.1149 16.9126C19.4591 16.6392 19.9597 16.6967 20.2328 17.0406Z" fill="#012D3D"/>
<path d="M23.9712 14.0725C24.2445 14.4168 24.187 14.9173 23.8431 15.1904C23.4988 15.4637 22.9979 15.4065 22.7246 15.0622C22.4515 14.7183 22.5094 14.2175 22.8537 13.9441C23.1976 13.6711 23.6981 13.7286 23.9712 14.0725Z" fill="#012D3D"/>
<path d="M16.7262 24.5653C16.9995 24.9096 16.942 25.4101 16.5977 25.6835C16.2538 25.9565 15.7533 25.899 15.4799 25.5548C15.2069 25.2108 15.2644 24.7103 15.6083 24.4372C15.9526 24.1639 16.4531 24.2214 16.7262 24.5653Z" fill="#012D3D"/>
<path d="M20.4644 21.5971C20.7378 21.9414 20.6803 22.442 20.3364 22.715C19.9921 22.9883 19.4916 22.9309 19.2182 22.5866C18.9452 22.2427 19.0027 21.7421 19.3469 21.4688C19.6908 21.1957 20.1914 21.2532 20.4644 21.5971Z" fill="#012D3D"/>
<path d="M24.2027 18.629C24.4761 18.9733 24.4182 19.4742 24.0743 19.7472C23.7304 20.0203 23.2298 19.9628 22.9565 19.6185C22.6834 19.2746 22.7409 18.774 23.0848 18.501C23.4287 18.228 23.9297 18.2851 24.2027 18.629Z" fill="#012D3D"/>
<path d="M12.2511 18.929C12.5241 19.2729 12.4666 19.7734 12.1223 20.0468C11.7784 20.3198 11.2779 20.2623 11.0048 19.9184C10.7315 19.5742 10.7893 19.074 11.1332 18.8009C11.4775 18.5276 11.9777 18.5847 12.2511 18.929Z" fill="#012D3D"/>
<path d="M15.9893 15.9608C16.2624 16.3047 16.2049 16.8052 15.861 17.0783C15.5167 17.3516 15.0162 17.2941 14.7431 16.9502C14.4698 16.6059 14.5276 16.1058 14.8718 15.8324C15.2157 15.5594 15.716 15.6165 15.9893 15.9608Z" fill="#012D3D"/>
<path d="M19.7279 12.9927C20.0009 13.3366 19.9431 13.8375 19.5991 14.1105C19.2552 14.3835 18.7547 14.3261 18.4816 13.9822C18.2083 13.6379 18.2661 13.1377 18.61 12.8646C18.9539 12.5916 19.4545 12.6484 19.7279 12.9927Z" fill="#012D3D"/>
<path d="M21.3556 26.9846C21.6289 27.3289 21.5711 27.829 21.2272 28.1021C20.8829 28.3754 20.3827 28.3183 20.1093 27.974C19.8363 27.6301 19.8938 27.1296 20.238 26.8562C20.582 26.5832 21.0825 26.6407 21.3556 26.9846Z" fill="#012D3D"/>
<path d="M25.0935 24.0167C25.3668 24.361 25.3094 24.8609 24.9651 25.1342C24.6212 25.4073 24.121 25.3502 23.8476 25.0059C23.5746 24.662 23.6321 24.1614 23.976 23.8884C24.3202 23.615 24.8204 23.6728 25.0935 24.0167Z" fill="#012D3D"/>
<path d="M25.7411 28.2431C26.0144 28.5874 25.9566 29.0876 25.6127 29.3606C25.2684 29.6339 24.7682 29.5768 24.4948 29.2325C24.2218 28.8886 24.2793 28.3881 24.6235 28.1147C24.9674 27.8417 25.468 27.8992 25.7411 28.2431Z" fill="#012D3D"/>
</svg>
